<mxfile host="app.diagrams.net" modified="2022-12-09T13:02:57.104Z" agent="5.0 (X11; Linux x86_64) AppleWebKit/537.36 (KHTML, like Gecko) Chrome/107.0.0.0 Safari/537.36" etag="TZCh182bN3gl4C6QaZI4" version="20.6.0" type="github">
  <diagram id="EGdQe4IVX6hvLVY6ShuS" name="Page-1">
    <mxGraphModel dx="1483" dy="995" grid="1" gridSize="10" guides="1" tooltips="1" connect="1" arrows="1" fold="1" page="1" pageScale="1" pageWidth="850" pageHeight="1100" math="0" shadow="0">
      <root>
        <mxCell id="0" />
        <mxCell id="1" parent="0" />
        <mxCell id="Ynn6aGl1uzIndGhe-_aT-1" value="&lt;u&gt;Aid&lt;/u&gt;" style="html=1;fillColor=#dae8fc;strokeColor=#99CCFF;" parent="1" vertex="1">
          <mxGeometry x="265" y="640" width="110" height="30" as="geometry" />
        </mxCell>
        <mxCell id="Ynn6aGl1uzIndGhe-_aT-3" value="AcreatedAt" style="html=1;fillColor=#dae8fc;strokeColor=#99CCFF;" parent="1" vertex="1">
          <mxGeometry x="375" y="640" width="110" height="30" as="geometry" />
        </mxCell>
        <mxCell id="Ynn6aGl1uzIndGhe-_aT-4" value="path" style="html=1;fillColor=#dae8fc;strokeColor=#99CCFF;" parent="1" vertex="1">
          <mxGeometry x="595" y="640" width="110" height="30" as="geometry" />
        </mxCell>
        <mxCell id="Ynn6aGl1uzIndGhe-_aT-5" value="isFavorite" style="html=1;fillColor=#dae8fc;strokeColor=#99CCFF;" parent="1" vertex="1">
          <mxGeometry x="705" y="640" width="110" height="30" as="geometry" />
        </mxCell>
        <mxCell id="Ynn6aGl1uzIndGhe-_aT-6" value="duration" style="html=1;fillColor=#dae8fc;strokeColor=#99CCFF;" parent="1" vertex="1">
          <mxGeometry x="630" y="830" width="110" height="30" as="geometry" />
        </mxCell>
        <mxCell id="Ynn6aGl1uzIndGhe-_aT-7" value="fileSize" style="html=1;fillColor=#dae8fc;strokeColor=#99CCFF;" parent="1" vertex="1">
          <mxGeometry x="815" y="640" width="110" height="30" as="geometry" />
        </mxCell>
        <mxCell id="Ynn6aGl1uzIndGhe-_aT-8" value="height" style="html=1;fillColor=#dae8fc;strokeColor=#99CCFF;" parent="1" vertex="1">
          <mxGeometry x="1035" y="640" width="110" height="30" as="geometry" />
        </mxCell>
        <mxCell id="Ynn6aGl1uzIndGhe-_aT-9" value="location" style="html=1;fillColor=#dae8fc;strokeColor=#99CCFF;" parent="1" vertex="1">
          <mxGeometry x="925" y="640" width="110" height="30" as="geometry" />
        </mxCell>
        <mxCell id="Ynn6aGl1uzIndGhe-_aT-11" value="&lt;font color=&quot;#66b2ff&quot; style=&quot;font-size: 17px;&quot;&gt;ASSET&lt;/font&gt;" style="text;html=1;align=center;verticalAlign=middle;resizable=0;points=[];autosize=1;strokeColor=none;fillColor=none;" parent="1" vertex="1">
          <mxGeometry x="225" y="600" width="80" height="30" as="geometry" />
        </mxCell>
        <mxCell id="Ynn6aGl1uzIndGhe-_aT-12" value="width&lt;span style=&quot;color: rgba(0, 0, 0, 0); font-family: monospace; font-size: 0px; text-align: start;&quot;&gt;%3CmxGraphModel%3E%3Croot%3E%3CmxCell%20id%3D%220%22%2F%3E%3CmxCell%20id%3D%221%22%20parent%3D%220%22%2F%3E%3CmxCell%20id%3D%222%22%20value%3D%22height%22%20style%3D%22html%3D1%3B%22%20vertex%3D%221%22%20parent%3D%221%22%3E%3CmxGeometry%20x%3D%22930%22%20y%3D%22470%22%20width%3D%22110%22%20height%3D%2230%22%20as%3D%22geometry%22%2F%3E%3C%2FmxCell%3E%3C%2Froot%3E%3C%2FmxGraphModel%3E&lt;/span&gt;" style="html=1;fillColor=#dae8fc;strokeColor=#99CCFF;" parent="1" vertex="1">
          <mxGeometry x="1145" y="640" width="110" height="30" as="geometry" />
        </mxCell>
        <mxCell id="Ynn6aGl1uzIndGhe-_aT-15" value="&lt;u&gt;Uid&lt;/u&gt;" style="html=1;fillColor=#dae8fc;strokeColor=#99CCFF;" parent="1" vertex="1">
          <mxGeometry x="475" y="230" width="110" height="30" as="geometry" />
        </mxCell>
        <mxCell id="Ynn6aGl1uzIndGhe-_aT-27" value="USER" style="text;html=1;align=center;verticalAlign=middle;resizable=0;points=[];autosize=1;strokeColor=none;fillColor=none;fontSize=17;fontColor=#66B2FF;" parent="1" vertex="1">
          <mxGeometry x="240" y="190" width="70" height="30" as="geometry" />
        </mxCell>
        <mxCell id="Ynn6aGl1uzIndGhe-_aT-29" value="name" style="html=1;fillColor=#dae8fc;strokeColor=#99CCFF;" parent="1" vertex="1">
          <mxGeometry x="365" y="230" width="110" height="30" as="geometry" />
        </mxCell>
        <mxCell id="Ynn6aGl1uzIndGhe-_aT-30" value="email" style="html=1;fillColor=#dae8fc;strokeColor=#99CCFF;" parent="1" vertex="1">
          <mxGeometry x="255" y="230" width="110" height="30" as="geometry" />
        </mxCell>
        <mxCell id="Ynn6aGl1uzIndGhe-_aT-31" value="password" style="html=1;fillColor=#dae8fc;strokeColor=#99CCFF;" parent="1" vertex="1">
          <mxGeometry x="585" y="230" width="110" height="30" as="geometry" />
        </mxCell>
        <mxCell id="Ynn6aGl1uzIndGhe-_aT-32" value="UcreatedAt" style="html=1;fillColor=#dae8fc;strokeColor=#99CCFF;" parent="1" vertex="1">
          <mxGeometry x="695" y="230" width="110" height="30" as="geometry" />
        </mxCell>
        <mxCell id="UKtDR643yK7SGsi0M_RO-41" style="edgeStyle=none;rounded=0;orthogonalLoop=1;jettySize=auto;html=1;exitX=0;exitY=0.5;exitDx=0;exitDy=0;entryX=0.5;entryY=1;entryDx=0;entryDy=0;endArrow=classic;endFill=1;" parent="1" source="Ynn6aGl1uzIndGhe-_aT-33" target="UKtDR643yK7SGsi0M_RO-11" edge="1">
          <mxGeometry relative="1" as="geometry" />
        </mxCell>
        <mxCell id="Ynn6aGl1uzIndGhe-_aT-33" value="&lt;u&gt;collection_id&lt;/u&gt;" style="html=1;fillColor=#dae8fc;strokeColor=#99CCFF;" parent="1" vertex="1">
          <mxGeometry x="1045" y="570" width="110" height="30" as="geometry" />
        </mxCell>
        <mxCell id="Ynn6aGl1uzIndGhe-_aT-36" value="MEMORY" style="text;html=1;align=center;verticalAlign=middle;resizable=0;points=[];autosize=1;strokeColor=none;fillColor=none;fontSize=17;fontColor=#66B2FF;" parent="1" vertex="1">
          <mxGeometry x="1040" y="535" width="100" height="30" as="geometry" />
        </mxCell>
        <mxCell id="Ynn6aGl1uzIndGhe-_aT-37" value="ALBUM" style="text;html=1;align=center;verticalAlign=middle;resizable=0;points=[];autosize=1;strokeColor=none;fillColor=none;fontSize=17;fontColor=#66B2FF;" parent="1" vertex="1">
          <mxGeometry x="1180" y="440" width="80" height="30" as="geometry" />
        </mxCell>
        <mxCell id="Ynn6aGl1uzIndGhe-_aT-54" value="iso" style="html=1;fillColor=#dae8fc;strokeColor=#99CCFF;" parent="1" vertex="1">
          <mxGeometry x="770" y="730" width="110" height="30" as="geometry" />
        </mxCell>
        <mxCell id="Ynn6aGl1uzIndGhe-_aT-55" value="shutterSpeed" style="html=1;fillColor=#dae8fc;strokeColor=#99CCFF;" parent="1" vertex="1">
          <mxGeometry x="660" y="730" width="110" height="30" as="geometry" />
        </mxCell>
        <mxCell id="Ynn6aGl1uzIndGhe-_aT-56" value="focalLength" style="html=1;fillColor=#dae8fc;strokeColor=#99CCFF;" parent="1" vertex="1">
          <mxGeometry x="880" y="730" width="110" height="30" as="geometry" />
        </mxCell>
        <mxCell id="Ynn6aGl1uzIndGhe-_aT-57" value="framerate" style="html=1;fillColor=#dae8fc;strokeColor=#99CCFF;" parent="1" vertex="1">
          <mxGeometry x="740" y="830" width="110" height="30" as="geometry" />
        </mxCell>
        <mxCell id="Z-hFkWJe5EAlLttmxZrw-9" value="theme" style="html=1;fillColor=#dae8fc;strokeColor=#99CCFF;" parent="1" vertex="1">
          <mxGeometry x="1155" y="570" width="110" height="30" as="geometry" />
        </mxCell>
        <mxCell id="Z-hFkWJe5EAlLttmxZrw-11" value="&lt;u&gt;Pid&lt;/u&gt;" style="html=1;fillColor=#dae8fc;strokeColor=#99CCFF;" parent="1" vertex="1">
          <mxGeometry x="205" y="855" width="110" height="30" as="geometry" />
        </mxCell>
        <mxCell id="Z-hFkWJe5EAlLttmxZrw-12" value="name" style="html=1;fillColor=#dae8fc;strokeColor=#99CCFF;" parent="1" vertex="1">
          <mxGeometry x="315" y="855" width="110" height="30" as="geometry" />
        </mxCell>
        <mxCell id="Z-hFkWJe5EAlLttmxZrw-14" value="PERSON" style="text;html=1;align=center;verticalAlign=middle;resizable=0;points=[];autosize=1;strokeColor=none;fillColor=none;fontSize=17;fontColor=#66B2FF;" parent="1" vertex="1">
          <mxGeometry x="195" y="810" width="100" height="30" as="geometry" />
        </mxCell>
        <mxCell id="UKtDR643yK7SGsi0M_RO-42" style="edgeStyle=none;rounded=0;orthogonalLoop=1;jettySize=auto;html=1;entryX=0.75;entryY=1;entryDx=0;entryDy=0;endArrow=classic;endFill=1;" parent="1" source="UKtDR643yK7SGsi0M_RO-2" target="UKtDR643yK7SGsi0M_RO-11" edge="1">
          <mxGeometry relative="1" as="geometry" />
        </mxCell>
        <mxCell id="UKtDR643yK7SGsi0M_RO-2" value="&lt;u&gt;collection_id&lt;/u&gt;" style="html=1;fillColor=#dae8fc;strokeColor=#99CCFF;" parent="1" vertex="1">
          <mxGeometry x="1150" y="485" width="110" height="30" as="geometry" />
        </mxCell>
        <mxCell id="UKtDR643yK7SGsi0M_RO-4" value="title" style="html=1;fillColor=#dae8fc;strokeColor=#99CCFF;" parent="1" vertex="1">
          <mxGeometry x="1260" y="485" width="110" height="30" as="geometry" />
        </mxCell>
        <mxCell id="UKtDR643yK7SGsi0M_RO-10" value="COLLECTION" style="text;html=1;align=center;verticalAlign=middle;resizable=0;points=[];autosize=1;strokeColor=none;fillColor=none;fontSize=17;fontColor=#66B2FF;" parent="1" vertex="1">
          <mxGeometry x="622.5" y="380" width="130" height="30" as="geometry" />
        </mxCell>
        <mxCell id="UKtDR643yK7SGsi0M_RO-11" value="&lt;u&gt;Cid&lt;/u&gt;" style="html=1;fillColor=#dae8fc;strokeColor=#99CCFF;" parent="1" vertex="1">
          <mxGeometry x="715" y="425" width="110" height="30" as="geometry" />
        </mxCell>
        <mxCell id="UKtDR643yK7SGsi0M_RO-13" value="CcreatedAt" style="html=1;fillColor=#dae8fc;strokeColor=#99CCFF;" parent="1" vertex="1">
          <mxGeometry x="825" y="425" width="110" height="30" as="geometry" />
        </mxCell>
        <mxCell id="UKtDR643yK7SGsi0M_RO-25" style="edgeStyle=none;rounded=0;orthogonalLoop=1;jettySize=auto;html=1;entryX=0.887;entryY=0.029;entryDx=0;entryDy=0;entryPerimeter=0;endArrow=classic;endFill=1;" parent="1" source="UKtDR643yK7SGsi0M_RO-14" target="Z-hFkWJe5EAlLttmxZrw-11" edge="1">
          <mxGeometry relative="1" as="geometry" />
        </mxCell>
        <mxCell id="UKtDR643yK7SGsi0M_RO-14" value="&lt;u&gt;person_id&lt;/u&gt;" style="html=1;fillColor=#dae8fc;strokeColor=#99CCFF;" parent="1" vertex="1">
          <mxGeometry x="305" y="750" width="110" height="30" as="geometry" />
        </mxCell>
        <mxCell id="UKtDR643yK7SGsi0M_RO-15" value="APPEARS IN" style="text;html=1;align=center;verticalAlign=middle;resizable=0;points=[];autosize=1;strokeColor=none;fillColor=none;fontSize=17;fontColor=#66B2FF;" parent="1" vertex="1">
          <mxGeometry x="150" y="710" width="130" height="30" as="geometry" />
        </mxCell>
        <mxCell id="UKtDR643yK7SGsi0M_RO-26" style="edgeStyle=none;rounded=0;orthogonalLoop=1;jettySize=auto;html=1;endArrow=classic;endFill=1;entryX=0.345;entryY=1.067;entryDx=0;entryDy=0;entryPerimeter=0;" parent="1" source="UKtDR643yK7SGsi0M_RO-16" target="Ynn6aGl1uzIndGhe-_aT-1" edge="1">
          <mxGeometry relative="1" as="geometry">
            <mxPoint x="350" y="680" as="targetPoint" />
          </mxGeometry>
        </mxCell>
        <mxCell id="UKtDR643yK7SGsi0M_RO-16" value="&lt;u&gt;asset_id&lt;/u&gt;" style="html=1;fillColor=#dae8fc;strokeColor=#99CCFF;" parent="1" vertex="1">
          <mxGeometry x="195" y="750" width="110" height="30" as="geometry" />
        </mxCell>
        <mxCell id="UKtDR643yK7SGsi0M_RO-38" style="edgeStyle=none;rounded=0;orthogonalLoop=1;jettySize=auto;html=1;entryX=0.75;entryY=1;entryDx=0;entryDy=0;endArrow=classic;endFill=1;" parent="1" source="UKtDR643yK7SGsi0M_RO-17" target="Ynn6aGl1uzIndGhe-_aT-15" edge="1">
          <mxGeometry relative="1" as="geometry" />
        </mxCell>
        <mxCell id="UKtDR643yK7SGsi0M_RO-17" value="&lt;u&gt;user_id&lt;/u&gt;" style="html=1;fillColor=#dae8fc;strokeColor=#99CCFF;" parent="1" vertex="1">
          <mxGeometry x="807.5" y="330" width="110" height="30" as="geometry" />
        </mxCell>
        <mxCell id="UKtDR643yK7SGsi0M_RO-18" value="COLLABORATES IN" style="text;html=1;align=center;verticalAlign=middle;resizable=0;points=[];autosize=1;strokeColor=none;fillColor=none;fontSize=17;fontColor=#66B2FF;" parent="1" vertex="1">
          <mxGeometry x="780" y="290" width="180" height="30" as="geometry" />
        </mxCell>
        <mxCell id="UKtDR643yK7SGsi0M_RO-19" value="&lt;u&gt;collection_id&lt;/u&gt;" style="html=1;fillColor=#dae8fc;strokeColor=#99CCFF;" parent="1" vertex="1">
          <mxGeometry x="917.5" y="330" width="110" height="30" as="geometry" />
        </mxCell>
        <mxCell id="UKtDR643yK7SGsi0M_RO-28" style="edgeStyle=none;rounded=0;orthogonalLoop=1;jettySize=auto;html=1;entryX=0.25;entryY=1;entryDx=0;entryDy=0;endArrow=classic;endFill=1;" parent="1" source="UKtDR643yK7SGsi0M_RO-27" target="Ynn6aGl1uzIndGhe-_aT-15" edge="1">
          <mxGeometry relative="1" as="geometry" />
        </mxCell>
        <mxCell id="UKtDR643yK7SGsi0M_RO-27" value="user_id" style="html=1;fillColor=#dae8fc;strokeColor=#99CCFF;" parent="1" vertex="1">
          <mxGeometry x="485" y="640" width="110" height="30" as="geometry" />
        </mxCell>
        <mxCell id="UKtDR643yK7SGsi0M_RO-29" value="CONTAINS" style="text;html=1;align=center;verticalAlign=middle;resizable=0;points=[];autosize=1;strokeColor=none;fillColor=none;fontSize=17;fontColor=#66B2FF;" parent="1" vertex="1">
          <mxGeometry x="555" y="510" width="110" height="30" as="geometry" />
        </mxCell>
        <mxCell id="UKtDR643yK7SGsi0M_RO-32" style="edgeStyle=none;rounded=0;orthogonalLoop=1;jettySize=auto;html=1;entryX=0.75;entryY=0;entryDx=0;entryDy=0;endArrow=classic;endFill=1;" parent="1" source="UKtDR643yK7SGsi0M_RO-30" target="Ynn6aGl1uzIndGhe-_aT-1" edge="1">
          <mxGeometry relative="1" as="geometry" />
        </mxCell>
        <mxCell id="UKtDR643yK7SGsi0M_RO-30" value="&lt;u&gt;asset_id&lt;/u&gt;" style="html=1;fillColor=#dae8fc;strokeColor=#99CCFF;" parent="1" vertex="1">
          <mxGeometry x="620" y="550" width="110" height="30" as="geometry" />
        </mxCell>
        <mxCell id="UKtDR643yK7SGsi0M_RO-33" style="edgeStyle=none;rounded=0;orthogonalLoop=1;jettySize=auto;html=1;entryX=0.25;entryY=1;entryDx=0;entryDy=0;endArrow=classic;endFill=1;" parent="1" source="UKtDR643yK7SGsi0M_RO-31" target="UKtDR643yK7SGsi0M_RO-11" edge="1">
          <mxGeometry relative="1" as="geometry" />
        </mxCell>
        <mxCell id="UKtDR643yK7SGsi0M_RO-31" value="&lt;u&gt;collection_id&lt;/u&gt;" style="html=1;fillColor=#dae8fc;strokeColor=#99CCFF;" parent="1" vertex="1">
          <mxGeometry x="730" y="550" width="110" height="30" as="geometry" />
        </mxCell>
        <mxCell id="UKtDR643yK7SGsi0M_RO-37" style="edgeStyle=none;rounded=0;orthogonalLoop=1;jettySize=auto;html=1;entryX=0.5;entryY=1;entryDx=0;entryDy=0;endArrow=classic;endFill=1;" parent="1" source="UKtDR643yK7SGsi0M_RO-35" target="Ynn6aGl1uzIndGhe-_aT-15" edge="1">
          <mxGeometry relative="1" as="geometry" />
        </mxCell>
        <mxCell id="UKtDR643yK7SGsi0M_RO-35" value="user_id" style="html=1;fillColor=#dae8fc;strokeColor=#99CCFF;" parent="1" vertex="1">
          <mxGeometry x="605" y="425" width="110" height="30" as="geometry" />
        </mxCell>
        <mxCell id="uPU5jIsqsCwuKhPni7mf-1" value="IMAGE" style="text;html=1;align=center;verticalAlign=middle;resizable=0;points=[];autosize=1;strokeColor=none;fillColor=none;fontSize=17;fontColor=#66B2FF;" vertex="1" parent="1">
          <mxGeometry x="555" y="690" width="80" height="30" as="geometry" />
        </mxCell>
        <mxCell id="uPU5jIsqsCwuKhPni7mf-2" value="VIDEO" style="text;html=1;align=center;verticalAlign=middle;resizable=0;points=[];autosize=1;strokeColor=none;fillColor=none;fontSize=17;fontColor=#66B2FF;" vertex="1" parent="1">
          <mxGeometry x="535" y="790" width="80" height="30" as="geometry" />
        </mxCell>
        <mxCell id="uPU5jIsqsCwuKhPni7mf-5" value="&lt;font color=&quot;#66b2ff&quot; style=&quot;font-size: 17px;&quot;&gt;ADMIN&lt;/font&gt;" style="text;html=1;align=center;verticalAlign=middle;resizable=0;points=[];autosize=1;strokeColor=none;fillColor=none;" vertex="1" parent="1">
          <mxGeometry x="230" y="350" width="80" height="30" as="geometry" />
        </mxCell>
        <mxCell id="uPU5jIsqsCwuKhPni7mf-8" value="thumbnail" style="html=1;fillColor=#dae8fc;strokeColor=#99CCFF;" vertex="1" parent="1">
          <mxGeometry x="1255" y="640" width="110" height="30" as="geometry" />
        </mxCell>
        <mxCell id="uPU5jIsqsCwuKhPni7mf-9" value="deviceName" style="html=1;fillColor=#dae8fc;strokeColor=#99CCFF;" vertex="1" parent="1">
          <mxGeometry x="1365" y="640" width="110" height="30" as="geometry" />
        </mxCell>
        <mxCell id="uPU5jIsqsCwuKhPni7mf-10" value="description" style="html=1;fillColor=#dae8fc;strokeColor=#99CCFF;" vertex="1" parent="1">
          <mxGeometry x="1475" y="640" width="110" height="30" as="geometry" />
        </mxCell>
        <mxCell id="uPU5jIsqsCwuKhPni7mf-11" value="thumbnail" style="html=1;fillColor=#dae8fc;strokeColor=#99CCFF;" vertex="1" parent="1">
          <mxGeometry x="935" y="425" width="110" height="30" as="geometry" />
        </mxCell>
        <mxCell id="uPU5jIsqsCwuKhPni7mf-12" value="location" style="html=1;fillColor=#dae8fc;strokeColor=#99CCFF;" vertex="1" parent="1">
          <mxGeometry x="1265" y="570" width="110" height="30" as="geometry" />
        </mxCell>
        <mxCell id="uPU5jIsqsCwuKhPni7mf-13" value="isFavorite" style="html=1;fillColor=#dae8fc;strokeColor=#99CCFF;" vertex="1" parent="1">
          <mxGeometry x="1375" y="570" width="110" height="30" as="geometry" />
        </mxCell>
        <mxCell id="uPU5jIsqsCwuKhPni7mf-14" value="description" style="html=1;fillColor=#dae8fc;strokeColor=#99CCFF;" vertex="1" parent="1">
          <mxGeometry x="1370" y="485" width="110" height="30" as="geometry" />
        </mxCell>
        <mxCell id="uPU5jIsqsCwuKhPni7mf-15" value="&lt;u&gt;asset_id&lt;/u&gt;" style="html=1;fillColor=#dae8fc;strokeColor=#99CCFF;" vertex="1" parent="1">
          <mxGeometry x="520" y="830" width="110" height="30" as="geometry" />
        </mxCell>
        <mxCell id="uPU5jIsqsCwuKhPni7mf-16" value="&lt;u&gt;asset_id&lt;/u&gt;" style="html=1;fillColor=#dae8fc;strokeColor=#99CCFF;" vertex="1" parent="1">
          <mxGeometry x="550" y="730" width="110" height="30" as="geometry" />
        </mxCell>
        <mxCell id="uPU5jIsqsCwuKhPni7mf-19" value="" style="endArrow=classic;html=1;rounded=0;exitX=0;exitY=0.5;exitDx=0;exitDy=0;entryX=0.6;entryY=0.967;entryDx=0;entryDy=0;entryPerimeter=0;" edge="1" parent="1" source="uPU5jIsqsCwuKhPni7mf-16" target="Ynn6aGl1uzIndGhe-_aT-1">
          <mxGeometry width="50" height="50" relative="1" as="geometry">
            <mxPoint x="510" y="800" as="sourcePoint" />
            <mxPoint x="560" y="750" as="targetPoint" />
          </mxGeometry>
        </mxCell>
        <mxCell id="uPU5jIsqsCwuKhPni7mf-20" value="" style="endArrow=classic;html=1;rounded=0;exitX=0;exitY=0;exitDx=0;exitDy=0;entryX=0.5;entryY=1;entryDx=0;entryDy=0;" edge="1" parent="1" source="uPU5jIsqsCwuKhPni7mf-15" target="Ynn6aGl1uzIndGhe-_aT-1">
          <mxGeometry width="50" height="50" relative="1" as="geometry">
            <mxPoint x="510" y="800" as="sourcePoint" />
            <mxPoint x="560" y="750" as="targetPoint" />
          </mxGeometry>
        </mxCell>
        <mxCell id="uPU5jIsqsCwuKhPni7mf-21" value="" style="endArrow=classic;html=1;rounded=0;exitX=0.25;exitY=0;exitDx=0;exitDy=0;entryX=1;entryY=0.25;entryDx=0;entryDy=0;" edge="1" parent="1" source="UKtDR643yK7SGsi0M_RO-2" target="UKtDR643yK7SGsi0M_RO-19">
          <mxGeometry width="50" height="50" relative="1" as="geometry">
            <mxPoint x="980" y="590" as="sourcePoint" />
            <mxPoint x="1030" y="540" as="targetPoint" />
          </mxGeometry>
        </mxCell>
      </root>
    </mxGraphModel>
  </diagram>
</mxfile>
